<?xml version="1.0" encoding="utf-8"?>
<!-- Generator: Adobe Illustrator 16.0.0, SVG Export Plug-In . SVG Version: 6.00 Build 0)  -->
<!DOCTYPE svg PUBLIC "-//W3C//DTD SVG 1.1//EN" "http://www.w3.org/Graphics/SVG/1.1/DTD/svg11.dtd">
<svg version="1.1" id="Layer_1" xmlns="http://www.w3.org/2000/svg" xmlns:xlink="http://www.w3.org/1999/xlink" x="0px" y="0px"
	 width="595.281px" height="841.891px" viewBox="0 0 595.281 841.891" enable-background="new 0 0 595.281 841.891"
	 xml:space="preserve">
<path fill="#91979C" d="M477.093,166.711H118.188c-41.223,0-74.782,33.534-74.782,74.782v358.93
	c0,41.223,33.534,74.782,74.782,74.782h358.929c41.225,0,74.783-33.534,74.783-74.782v-358.93
	C551.875,200.245,518.341,166.711,477.093,166.711z M521.962,600.397c0,24.729-20.117,44.869-44.869,44.869H118.188
	c-24.729,0-44.869-20.115-44.869-44.869v-54.096l120.693-134.112l163.033,148.2l90.16-75.129l74.781,62.306v52.831H521.962z
	 M521.962,508.65l-74.783-62.307l-89.316,74.41L191.903,369.85L73.319,501.606V241.493c0-24.729,20.115-44.869,44.869-44.869
	h358.929c24.729,0,44.869,20.115,44.869,44.869V508.65H521.962z"/>
<path fill="#91979C" d="M402.335,391.032c41.223,0,74.781-33.534,74.781-74.782c0-41.247-33.533-74.781-74.781-74.781
	c-41.223,0-74.783,33.534-74.783,74.781C327.552,357.498,361.087,391.032,402.335,391.032z M402.335,271.406
	c24.729,0,44.869,20.115,44.869,44.869s-20.115,44.869-44.869,44.869s-44.869-20.115-44.869-44.869S377.582,271.406,402.335,271.406
	z"/>
</svg>
